<svg xmlns="http://www.w3.org/2000/svg" viewBox="0 0 520 520"><defs><style>.a,.b,.c,.f{fill:none;}.b{stroke:rgba(255,255,255,0.1);}.c{stroke:rgba(255,255,255,0.06);}.d,.e{stroke:none;}.e{fill:rgba(255,255,255,0.03);}</style></defs><g transform="translate(-84 -978)"><g class="a" transform="translate(94 988)"><path class="d" d="M250,0C388.071,0,500,111.929,500,250S388.071,500,250,500,0,388.071,0,250,111.929,0,250,0Z"/><path class="e" d="M 250 0 C 111.9287719726562 0 0 111.9287719726562 0 250 C 0 388.0710754394531 111.9287719726562 500 250 500 C 388.0710754394531 500 500 388.0710754394531 500 250 C 500 111.9287719726562 388.0710754394531 0 250 0 M 250 -10 C 393.364501953125 -10 510 106.635498046875 510 250 C 510 393.364501953125 393.364501953125 510 250 510 C 106.635498046875 510 -10 393.364501953125 -10 250 C -10 106.635498046875 106.635498046875 -10 250 -10 Z"/></g><g class="b" transform="translate(94 988)"><circle class="d" cx="250" cy="250" r="250"/><circle class="f" cx="250" cy="250" r="249.5"/></g><g class="c" transform="translate(144 1038)"><circle class="d" cx="200" cy="200" r="200"/><circle class="f" cx="200" cy="200" r="199.5"/></g><g class="c" transform="translate(194 1088)"><circle class="d" cx="150" cy="150" r="150"/><circle class="f" cx="150" cy="150" r="149.5"/></g><g class="c" transform="translate(244 1138)"><circle class="d" cx="100" cy="100" r="100"/><circle class="f" cx="100" cy="100" r="99.5"/></g><g class="c" transform="translate(294 1188)"><circle class="d" cx="50" cy="50" r="50"/><circle class="f" cx="50" cy="50" r="49.5"/></g><line class="c" y2="500" transform="translate(344 988)"/><line class="c" y2="500" transform="translate(594 1238) rotate(90)"/><line class="c" y2="8" transform="translate(348 1163) rotate(90)"/><line class="c" y2="8" transform="translate(419 1242) rotate(180)"/><line class="c" y2="8" transform="translate(348 1213) rotate(90)"/><line class="c" y2="8" transform="translate(369 1242) rotate(180)"/><line class="c" y2="8" transform="translate(348 1263) rotate(90)"/><line class="c" y2="8" transform="translate(319 1242) rotate(180)"/><line class="c" y2="8" transform="translate(348 1463) rotate(90)"/><line class="c" y2="8" transform="translate(119 1242) rotate(180)"/><line class="c" y2="8" transform="translate(348 1113) rotate(90)"/><line class="c" y2="8" transform="translate(469 1242) rotate(180)"/><line class="c" y2="8" transform="translate(348 1413) rotate(90)"/><line class="c" y2="8" transform="translate(169 1242) rotate(180)"/><line class="c" y2="8" transform="translate(348 1063) rotate(90)"/><line class="c" y2="8" transform="translate(519 1242) rotate(180)"/><line class="c" y2="8" transform="translate(348 1363) rotate(90)"/><line class="c" y2="8" transform="translate(219 1242) rotate(180)"/><line class="c" y2="8" transform="translate(348 1013) rotate(90)"/><line class="c" y2="8" transform="translate(569 1242) rotate(180)"/><line class="c" y2="8" transform="translate(348 1313) rotate(90)"/><line class="c" y2="8" transform="translate(269 1242) rotate(180)"/></g></svg>